<?xml version="1.0" encoding="UTF-8"?>
<!DOCTYPE svg PUBLIC "-//W3C//DTD SVG 1.1//EN" "http://www.w3.org/Graphics/SVG/1.1/DTD/svg11.dtd">
<svg id="logo" xmlns="http://www.w3.org/2000/svg" version="1.1" width="512px" height="512px" style="shape-rendering:geometricPrecision; text-rendering:geometricPrecision; image-rendering:optimizeQuality; fill-rule:evenodd; clip-rule:evenodd" xmlns:xlink="http://www.w3.org/1999/xlink">

<g id="logo-left">
<g id="logo1l"><path style="opacity:0.985" d="M 203.5,455.5 C 203.5,320.833 203.5,186.167 203.5,51.5C 217.607,42.9409 231.94,34.6076 246.5,26.5C 247.5,177.832 247.833,329.165 247.5,480.5C 232.342,473.003 217.675,464.67 203.5,455.5 Z"/></g>
<g id="logo2l"><path style="opacity:0.976"  d="M 203.5,51.5 C 203.5,186.167 203.5,320.833 203.5,455.5C 191.809,449.236 180.309,442.569 169,435.5C 168.667,347.833 168.333,260.167 168,172.5C 160.391,176.719 152.891,181.052 145.5,185.5C 145.5,151.833 145.5,118.167 145.5,84.5C 164.833,73.5 184.167,62.5 203.5,51.5 Z"/></g>
<g id="logo3l"><path style="opacity:0.986"  d="M 145.5,84.5 C 145.5,118.167 145.5,151.833 145.5,185.5C 128.833,195.167 112.167,204.833 95.5,214.5C 95.5,180.833 95.5,147.167 95.5,113.5C 111.804,103.343 128.471,93.6767 145.5,84.5 Z"/></g>
<g id="logo4l"><path style="opacity:0.964"  d="M 95.5,113.5 C 95.5,147.167 95.5,180.833 95.5,214.5C 81.5805,223.292 67.2472,231.292 52.5,238.5C 52.3333,204.832 52.5,171.165 53,137.5C 66.9781,129.096 81.1448,121.096 95.5,113.5 Z"/></g>
</g>
<g id="logo-reight">
<g><path style="opacity:0.985"  d="M 306.5,50.5 C 306.5,185.833 306.5,321.167 306.5,456.5C 292.258,464.785 277.924,472.785 263.5,480.5C 263.167,329.165 263.5,177.832 264.5,26.5C 278.527,34.5118 292.527,42.5118 306.5,50.5 Z"/></g>
<g><path style="opacity:0.982"  d="M 306.5,50.5 C 323.202,60.1817 339.869,69.8484 356.5,79.5C 356.5,113.167 356.5,146.833 356.5,180.5C 351.945,177.971 347.445,175.304 343,172.5C 342.333,188.833 342.333,205.167 343,221.5C 347.67,224.03 352.17,226.697 356.5,229.5C 356.5,258.833 356.5,288.167 356.5,317.5C 351.945,314.971 347.445,312.304 343,309.5C 342.667,351.5 342.333,393.5 342,435.5C 330.221,442.637 318.388,449.637 306.5,456.5C 306.5,321.167 306.5,185.833 306.5,50.5 Z"/></g>
<g><path style="opacity:0.986"  d="M 356.5,79.5 C 375.833,90.5 395.167,101.5 414.5,112.5C 414.5,146.167 414.5,179.833 414.5,213.5C 395.184,202.528 375.85,191.528 356.5,180.5C 356.5,146.833 356.5,113.167 356.5,79.5 Z"/></g>
<g><path style="opacity:0.962"  d="M 414.5,112.5 C 429.054,120.695 443.554,129.028 458,137.5C 458.5,171.165 458.667,204.832 458.5,238.5C 443.342,231.003 428.675,222.67 414.5,213.5C 414.5,179.833 414.5,146.167 414.5,112.5 Z"/></g>
<g><path style="opacity:0.962"  d="M 356.5,229.5 C 371.112,237.606 385.612,245.939 400,254.5C 400.833,283.839 400.667,313.172 399.5,342.5C 384.975,334.407 370.642,326.074 356.5,317.5C 356.5,288.167 356.5,258.833 356.5,229.5 Z"/></g>
</g>
<animate id="start" href="#logo-left" attributeType="CSS" attributeName="fill" values="#ff8600;#fbcd7f;#ff8600" dur="10s" repeatCount="indefinite" />
<animate href="#logo-reight" attributeType="CSS" attributeName="fill" values="#fbcd7f;#ff8600;#fbcd7f" dur="10s" repeatCount="indefinite" />
</svg>
